<svg width="329" height="98" viewBox="0 0 329 98" fill="none" xmlns="http://www.w3.org/2000/svg">
<path d="M49.6921 48.1863L75.3384 5.7802C75.3384 5.7802 94.0497 15.254 96.5212 37.8144C56.9241 46.4509 49.6921 48.1863 49.6921 48.1863Z" fill="#EBA824"/>
<path d="M91.2407 38.8273C92.9086 38.5977 94.7183 38.0642 96.5212 37.8144C94.0565 15.2608 75.3384 5.7802 75.3384 5.7802L72.428 10.3517C77.1008 13.9373 88.4384 22.1147 91.2407 38.8273Z" fill="#6E4921"/>
<path d="M40.853 54.3919L60.8744 20.494C55.0064 17.0232 48.1661 15.0245 40.853 15.0245C19.1098 15.0245 1.48557 32.6487 1.48557 54.3919C1.48557 76.1352 19.1098 93.7594 40.853 93.7594C62.5963 93.7594 80.2205 76.1352 80.2205 54.3919C80.2205 51.3668 79.8694 48.4294 79.2211 45.6001L40.853 54.3919Z" fill="#EBA824"/>
<path d="M75.3586 46.4847C75.9394 49.0304 76.2567 51.6706 76.2567 54.3919C76.2567 73.9474 60.4085 89.7956 40.853 89.7956C21.2976 89.7956 5.44931 73.9474 5.44931 54.3919C5.44931 34.8365 21.2976 18.9882 40.853 18.9882C47.43 18.9882 53.5816 20.7844 58.8554 23.9108L60.8676 20.5008C54.9996 17.03 48.1593 15.0312 40.8463 15.0312C19.103 15.0312 1.47881 32.6554 1.47881 54.3987C1.47881 76.1419 19.103 93.7661 40.8463 93.7661C62.5895 93.7661 80.2137 76.1419 80.2137 54.3987C80.2137 51.3735 79.8626 48.4362 79.2144 45.6068L75.3586 46.4847Z" fill="#6E4921"/>
<path d="M37.8279 64.2439C37.8279 65.4832 38.3202 66.6718 39.1965 67.5481C40.0728 68.4244 41.2614 68.9167 42.5007 68.9167C43.74 68.9167 44.9285 68.4244 45.8048 67.5481C46.6811 66.6718 47.1734 65.4832 47.1734 64.2439C47.1734 63.0046 46.6811 61.8161 45.8048 60.9398C44.9285 60.0634 43.74 59.5711 42.5007 59.5711C41.2614 59.5711 40.0728 60.0634 39.1965 60.9398C38.3202 61.8161 37.8279 63.0046 37.8279 64.2439Z" fill="#4C2510"/>
<path d="M71.3881 21.014C71.3881 21.4654 71.4769 21.9124 71.6496 22.3295C71.8223 22.7465 72.0755 23.1255 72.3946 23.4447C72.7138 23.7639 73.0927 24.0172 73.5098 24.1899C73.9268 24.3627 74.3738 24.4516 74.8252 24.4516C75.2766 24.4516 75.7236 24.3627 76.1406 24.1899C76.5577 24.0172 76.9366 23.7639 77.2558 23.4447C77.5749 23.1255 77.8281 22.7465 78.0008 22.3295C78.1735 21.9124 78.2623 21.4654 78.2622 21.014C78.2623 20.5626 78.1735 20.1156 78.0008 19.6985C77.8281 19.2814 77.5749 18.9025 77.2558 18.5832C76.9366 18.264 76.5577 18.0108 76.1406 17.838C75.7236 17.6653 75.2766 17.5764 74.8252 17.5764C74.3738 17.5764 73.9268 17.6653 73.5098 17.838C73.0927 18.0108 72.7138 18.264 72.3946 18.5832C72.0755 18.9025 71.8223 19.2814 71.6496 19.6985C71.4769 20.1156 71.3881 20.5626 71.3881 21.014Z" fill="#4C2510"/>
<path d="M60.8406 55.783C60.8406 56.2862 61.0405 56.7688 61.3964 57.1247C61.7522 57.4805 62.2348 57.6804 62.7381 57.6804C63.2413 57.6804 63.724 57.4805 64.0798 57.1247C64.4357 56.7688 64.6356 56.2862 64.6356 55.783C64.6356 55.2797 64.4357 54.7971 64.0798 54.4412C63.724 54.0854 63.2413 53.8855 62.7381 53.8855C62.2348 53.8855 61.7522 54.0854 61.3964 54.4412C61.0405 54.7971 60.8406 55.2797 60.8406 55.783Z" fill="#4C2510"/>
<path d="M37.0378 85.8724C37.0378 86.1118 37.085 86.3489 37.1766 86.5701C37.2682 86.7913 37.4025 86.9923 37.5718 87.1616C37.7411 87.3309 37.9421 87.4652 38.1633 87.5568C38.3845 87.6484 38.6216 87.6956 38.861 87.6956C39.1004 87.6956 39.3375 87.6484 39.5587 87.5568C39.7799 87.4652 39.9809 87.3309 40.1502 87.1616C40.3195 86.9923 40.4538 86.7913 40.5454 86.5701C40.6371 86.3489 40.6842 86.1118 40.6842 85.8724C40.6842 85.633 40.6371 85.3959 40.5454 85.1747C40.4538 84.9535 40.3195 84.7525 40.1502 84.5832C39.9809 84.4139 39.7799 84.2796 39.5587 84.188C39.3375 84.0964 39.1004 84.0492 38.861 84.0492C38.6216 84.0492 38.3845 84.0964 38.1633 84.188C37.9421 84.2796 37.7411 84.4139 37.5718 84.5832C37.4025 84.7525 37.2682 84.9535 37.1766 85.1747C37.085 85.3959 37.0378 85.633 37.0378 85.8724Z" fill="#4C2510"/>
<path d="M12.3775 56.6203C12.3774 57.0717 12.4662 57.5187 12.6389 57.9358C12.8116 58.3528 13.0648 58.7318 13.3839 59.051C13.7031 59.3702 14.082 59.6235 14.4991 59.7962C14.9161 59.969 15.3631 60.0579 15.8145 60.0579C16.2659 60.0579 16.7129 59.969 17.13 59.7962C17.547 59.6235 17.9259 59.3702 18.2451 59.051C18.5642 58.7318 18.8174 58.3528 18.9901 57.9358C19.1628 57.5187 19.2516 57.0717 19.2516 56.6203C19.2516 56.1689 19.1628 55.7219 18.9901 55.3048C18.8174 54.8877 18.5642 54.5088 18.2451 54.1895C17.9259 53.8703 17.547 53.6171 17.13 53.4443C16.7129 53.2716 16.2659 53.1826 15.8145 53.1826C15.3631 53.1826 14.9161 53.2716 14.4991 53.4443C14.082 53.6171 13.7031 53.8703 13.3839 54.1895C13.0648 54.5088 12.8116 54.8877 12.6389 55.3048C12.4662 55.7219 12.3774 56.1689 12.3775 56.6203Z" fill="#623520"/>
<path d="M32.0274 49.3545C32.0274 49.6543 32.0863 49.9511 32.201 50.2281C32.3157 50.5051 32.4838 50.7567 32.6957 50.9687C32.9077 51.1807 33.1593 51.3488 33.4363 51.4636C33.7132 51.5783 34.01 51.6374 34.3098 51.6374C34.6096 51.6374 34.9064 51.5783 35.1833 51.4636C35.4603 51.3488 35.7119 51.1807 35.9238 50.9687C36.1358 50.7567 36.3039 50.5051 36.4186 50.2281C36.5332 49.9511 36.5922 49.6543 36.5922 49.3545C36.5922 49.0548 36.5332 48.7579 36.4186 48.481C36.3039 48.204 36.1358 47.9523 35.9238 47.7403C35.7119 47.5284 35.4603 47.3602 35.1833 47.2455C34.9064 47.1307 34.6096 47.0717 34.3098 47.0717C34.01 47.0717 33.7132 47.1307 33.4363 47.2455C33.1593 47.3602 32.9077 47.5284 32.6957 47.7403C32.4838 47.9523 32.3157 48.204 32.201 48.481C32.0863 48.7579 32.0274 49.0548 32.0274 49.3545Z" fill="#FFFCF4"/>
<path d="M45.8432 29.9341C45.8432 30.2833 45.9819 30.6183 46.2288 30.8652C46.4758 31.1121 46.8107 31.2509 47.1599 31.2509C47.5091 31.2509 47.8441 31.1121 48.091 30.8652C48.3379 30.6183 48.4767 30.2833 48.4767 29.9341C48.4767 29.5849 48.3379 29.25 48.091 29.003C47.8441 28.7561 47.5091 28.6174 47.1599 28.6174C46.8107 28.6174 46.4758 28.7561 46.2288 29.003C45.9819 29.25 45.8432 29.5849 45.8432 29.9341Z" fill="#FFFCF4"/>
<path d="M81.8411 35.7413C81.8411 36.0906 81.9798 36.4255 82.2268 36.6724C82.4737 36.9194 82.8086 37.0581 83.1579 37.0581C83.5071 37.0581 83.842 36.9194 84.0889 36.6724C84.3359 36.4255 84.4746 36.0906 84.4746 35.7413C84.4746 35.3921 84.3359 35.0572 84.0889 34.8103C83.842 34.5633 83.5071 34.4246 83.1579 34.4246C82.8086 34.4246 82.4737 34.5633 82.2268 34.8103C81.9798 35.0572 81.8411 35.3921 81.8411 35.7413Z" fill="#FFFCF4"/>
<path d="M22.952 81.4832C22.9519 82.0437 23.0622 82.5987 23.2767 83.1166C23.4911 83.6344 23.8054 84.1049 24.2017 84.5013C24.598 84.8977 25.0685 85.2121 25.5863 85.4266C26.1041 85.6411 26.6591 85.7515 27.2196 85.7515C27.7801 85.7515 28.3351 85.6411 28.8529 85.4266C29.3707 85.2121 29.8412 84.8977 30.2375 84.5013C30.6338 84.1049 30.9481 83.6344 31.1626 83.1166C31.377 82.5987 31.4873 82.0437 31.4872 81.4832C31.4873 80.9227 31.377 80.3677 31.1626 79.8499C30.9481 79.332 30.6338 78.8615 30.2375 78.4651C29.8412 78.0688 29.3707 77.7544 28.8529 77.5399C28.3351 77.3254 27.7801 77.215 27.2196 77.215C26.6591 77.215 26.1041 77.3254 25.5863 77.5399C25.0685 77.7544 24.598 78.0688 24.2017 78.4651C23.8054 78.8615 23.4911 79.332 23.2767 79.8499C23.0622 80.3677 22.9519 80.9227 22.952 81.4832Z" fill="#FDFDEC"/>
<path d="M20.2577 51.1574L25.3626 50.5159C25.3626 50.5159 22.5401 41.6498 23.1816 40.1643C23.58 39.8199 24.917 39.57 24.7684 41.8456C24.6671 42.5749 28.7119 43.2299 27.3952 38.0777C26.8482 36.4436 23.661 34.0464 19.2516 35.4375C17.219 36.2275 13.6199 38.3613 15.4026 42.737C15.9158 43.5608 17.0367 44.0402 17.3338 42.5547C17.631 40.7855 18.6573 39.5633 19.049 41.2514C19.4406 42.9396 20.2577 51.1574 20.2577 51.1574ZM50.9886 74.1769L53.9665 77.8368C53.9665 77.8368 59.4969 71.3409 60.9622 71.118C61.4213 71.2598 62.2654 72.1782 60.422 73.1708C59.8075 73.4477 61.2593 76.9117 64.6221 73.3869C65.6282 72.1714 65.9456 68.5318 62.7313 65.77C61.131 64.5748 57.7277 62.8056 55.1887 66.3169C54.7971 67.1138 54.9659 68.2212 56.2691 67.735C57.7885 67.107 59.2335 67.3163 58.1193 68.4373C56.9917 69.5582 50.9886 74.1769 50.9886 74.1769ZM61.6307 35.9034L60.8406 38.6179C60.8406 38.6179 65.9321 39.1311 66.5398 39.7794C66.6276 40.0562 66.4588 40.7855 65.3446 40.2115C65.0002 40.0022 63.7847 41.8997 66.6681 42.3588C67.6135 42.4399 69.5177 41.3595 69.781 38.834C69.8283 37.6388 69.5379 35.3564 66.9382 35.2957C66.4115 35.3767 65.9253 35.8359 66.6073 36.3085C67.4311 36.842 67.8228 37.6253 66.8909 37.4565C65.9591 37.2877 61.6307 35.9034 61.6307 35.9034Z" fill="#E8BC38"/>
<path d="M31.3252 36.761C31.3252 36.761 33.9992 26.6794 41.8592 26.99C41.7106 30.346 40.8733 36.761 31.3252 36.761ZM24.343 60.0573C24.343 60.0573 30.265 60.422 30.974 64.8381C29.0833 65.1285 25.4099 65.3783 24.343 60.0573ZM74.8252 28.3068C74.8252 28.3068 78.377 28.5228 78.8024 31.1766C77.668 31.3454 75.4667 31.5007 74.8252 28.3068Z" fill="#3D7C38"/>
<path d="M156.504 39.392C156.504 42.112 155.8 44.608 154.392 46.88C152.984 49.152 150.936 51.008 148.248 52.448C145.56 53.888 142.36 54.736 138.648 54.992L136.584 66.56C135.784 71.008 133.608 73.232 130.056 73.232C128.104 73.232 126.296 72.656 124.632 71.504C123 70.352 121.688 68.592 120.696 66.224C119.704 63.856 119.208 60.944 119.208 57.488C119.208 50.992 120.248 45.488 122.328 40.976C124.44 36.432 127.256 33.04 130.776 30.8C134.328 28.528 138.232 27.392 142.488 27.392C145.496 27.392 148.04 27.92 150.12 28.976C152.232 30.032 153.816 31.472 154.872 33.296C155.96 35.088 156.504 37.12 156.504 39.392ZM139.512 50.048C146.072 49.216 149.352 45.808 149.352 39.824C149.352 37.712 148.648 36 147.24 34.688C145.864 33.344 143.72 32.672 140.808 32.672C137.512 32.672 134.632 33.712 132.168 35.792C129.736 37.872 127.848 40.768 126.504 44.48C125.192 48.16 124.536 52.368 124.536 57.104C124.536 59.088 124.728 60.848 125.112 62.384C125.528 63.92 126.04 65.12 126.648 65.984C127.288 66.816 127.896 67.232 128.472 67.232C129.272 67.232 129.88 66.128 130.296 63.92L131.88 54.848C130.632 54.656 130.088 54.576 130.248 54.608C129.288 54.448 128.664 54.16 128.376 53.744C128.088 53.296 127.944 52.736 127.944 52.064C127.944 51.36 128.136 50.8 128.52 50.384C128.936 49.968 129.496 49.76 130.2 49.76C130.52 49.76 130.76 49.776 130.92 49.808C131.688 49.936 132.28 50.016 132.696 50.048C133.112 47.552 133.704 44.208 134.472 40.016C134.664 38.928 135.096 38.16 135.768 37.712C136.472 37.232 137.288 36.992 138.216 36.992C139.272 36.992 140.024 37.2 140.472 37.616C140.952 38 141.192 38.624 141.192 39.488C141.192 40 141.16 40.416 141.096 40.736L139.512 50.048ZM161.358 42.464C160.014 42.464 159.006 42.16 158.334 41.552C157.662 40.912 157.326 40.032 157.326 38.912C157.326 37.792 157.758 36.864 158.622 36.128C159.518 35.36 160.622 34.976 161.934 34.976C163.118 34.976 164.078 35.264 164.814 35.84C165.55 36.416 165.918 37.232 165.918 38.288C165.918 39.568 165.502 40.592 164.67 41.36C163.838 42.096 162.734 42.464 161.358 42.464ZM160.974 68.24C158.894 68.24 157.374 67.504 156.414 66.032C155.486 64.56 155.022 62.608 155.022 60.176C155.022 58.736 155.198 56.896 155.55 54.656C155.934 52.384 156.414 50.272 156.99 48.32C157.278 47.296 157.662 46.592 158.142 46.208C158.622 45.824 159.39 45.632 160.446 45.632C162.078 45.632 162.894 46.176 162.894 47.264C162.894 48.064 162.59 49.92 161.982 52.832C161.214 56.352 160.83 58.736 160.83 59.984C160.83 60.944 160.958 61.68 161.214 62.192C161.47 62.704 161.902 62.96 162.51 62.96C163.086 62.96 163.806 62.56 164.67 61.76C165.534 60.96 166.686 59.696 168.126 57.968C168.51 57.52 168.942 57.296 169.422 57.296C169.838 57.296 170.158 57.488 170.382 57.872C170.638 58.256 170.766 58.784 170.766 59.456C170.766 60.736 170.462 61.728 169.854 62.432C166.686 66.304 163.726 68.24 160.974 68.24ZM189.897 57.296C190.313 57.296 190.633 57.488 190.857 57.872C191.113 58.256 191.241 58.784 191.241 59.456C191.241 60.64 190.937 61.632 190.329 62.432C188.825 64.384 186.953 65.92 184.713 67.04C182.505 68.16 180.009 68.72 177.225 68.72C175.049 68.72 173.161 68.4 171.561 67.76C169.961 67.088 168.729 66.192 167.865 65.072C167.033 63.92 166.617 62.64 166.617 61.232C166.617 59.12 167.465 57.248 169.161 55.616C170.857 53.984 173.289 52.416 176.457 50.912L168.585 51.104C167.881 51.136 167.337 50.896 166.953 50.384C166.601 49.84 166.425 49.2 166.425 48.464C166.425 47.696 166.601 47.024 166.953 46.448C167.337 45.84 167.849 45.536 168.489 45.536C169.961 45.536 171.929 45.648 174.393 45.872C174.905 45.904 175.833 45.968 177.177 46.064C178.553 46.16 179.705 46.208 180.633 46.208C180.953 46.208 181.561 46.08 182.457 45.824C182.617 45.792 182.921 45.712 183.369 45.584C183.849 45.456 184.249 45.392 184.569 45.392C185.081 45.392 185.497 45.616 185.817 46.064C186.169 46.512 186.345 47.2 186.345 48.128C186.345 49.152 186.105 49.952 185.625 50.528C185.145 51.104 184.393 51.616 183.369 52.064C180.457 53.312 178.041 54.656 176.121 56.096C174.201 57.504 173.241 58.912 173.241 60.32C173.241 61.216 173.657 61.952 174.489 62.528C175.321 63.104 176.553 63.392 178.185 63.392C179.977 63.392 181.785 62.944 183.609 62.048C185.465 61.152 187.129 59.792 188.601 57.968C188.985 57.52 189.417 57.296 189.897 57.296ZM211.272 57.296C211.688 57.296 212.008 57.488 212.232 57.872C212.488 58.256 212.616 58.784 212.616 59.456C212.616 60.64 212.312 61.632 211.704 62.432C210.2 64.384 208.328 65.92 206.088 67.04C203.88 68.16 201.384 68.72 198.6 68.72C196.424 68.72 194.536 68.4 192.936 67.76C191.336 67.088 190.104 66.192 189.24 65.072C188.408 63.92 187.992 62.64 187.992 61.232C187.992 59.12 188.84 57.248 190.536 55.616C192.232 53.984 194.664 52.416 197.832 50.912L189.96 51.104C189.256 51.136 188.712 50.896 188.328 50.384C187.976 49.84 187.8 49.2 187.8 48.464C187.8 47.696 187.976 47.024 188.328 46.448C188.712 45.84 189.224 45.536 189.864 45.536C191.336 45.536 193.304 45.648 195.768 45.872C196.28 45.904 197.208 45.968 198.552 46.064C199.928 46.16 201.08 46.208 202.008 46.208C202.328 46.208 202.936 46.08 203.832 45.824C203.992 45.792 204.296 45.712 204.744 45.584C205.224 45.456 205.624 45.392 205.944 45.392C206.456 45.392 206.872 45.616 207.192 46.064C207.544 46.512 207.72 47.2 207.72 48.128C207.72 49.152 207.48 49.952 207 50.528C206.52 51.104 205.768 51.616 204.744 52.064C201.832 53.312 199.416 54.656 197.496 56.096C195.576 57.504 194.616 58.912 194.616 60.32C194.616 61.216 195.032 61.952 195.864 62.528C196.696 63.104 197.928 63.392 199.56 63.392C201.352 63.392 203.16 62.944 204.984 62.048C206.84 61.152 208.504 59.792 209.976 57.968C210.36 57.52 210.792 57.296 211.272 57.296ZM214.13 68.24C212.146 68.24 210.562 67.52 209.378 66.08C208.194 64.64 207.602 62.752 207.602 60.416C207.602 57.856 208.194 55.44 209.378 53.168C210.562 50.864 212.13 49.024 214.082 47.648C216.066 46.24 218.162 45.536 220.37 45.536C221.074 45.536 221.538 45.68 221.762 45.968C222.018 46.224 222.226 46.704 222.386 47.408C223.058 47.28 223.762 47.216 224.498 47.216C226.066 47.216 226.85 47.776 226.85 48.896C226.85 49.568 226.61 51.168 226.13 53.696C225.394 57.376 225.026 59.936 225.026 61.376C225.026 61.856 225.138 62.24 225.362 62.528C225.618 62.816 225.938 62.96 226.322 62.96C226.93 62.96 227.666 62.576 228.53 61.808C229.394 61.008 230.562 59.728 232.034 57.968C232.418 57.52 232.85 57.296 233.33 57.296C233.746 57.296 234.066 57.488 234.29 57.872C234.546 58.256 234.674 58.784 234.674 59.456C234.674 60.736 234.37 61.728 233.762 62.432C232.45 64.064 231.058 65.44 229.586 66.56C228.114 67.68 226.69 68.24 225.314 68.24C224.258 68.24 223.282 67.888 222.386 67.184C221.522 66.448 220.866 65.456 220.418 64.208C218.754 66.896 216.658 68.24 214.13 68.24ZM215.858 63.392C216.562 63.392 217.234 62.976 217.874 62.144C218.514 61.312 218.978 60.208 219.266 58.832L221.042 50C219.698 50.032 218.45 50.544 217.298 51.536C216.178 52.496 215.282 53.776 214.61 55.376C213.938 56.976 213.602 58.672 213.602 60.464C213.602 61.456 213.794 62.192 214.178 62.672C214.594 63.152 215.154 63.392 215.858 63.392ZM268.837 28.16C269.829 28.352 270.565 28.688 271.045 29.168C271.557 29.648 271.813 30.208 271.813 30.848C271.813 31.904 271.509 32.672 270.901 33.152C270.325 33.632 269.397 33.824 268.117 33.728C265.237 33.504 262.981 33.36 261.349 33.296C259.749 33.2 257.637 33.136 255.013 33.104C253.829 38.992 252.741 44.912 251.749 50.864C251.397 53.04 251.029 55.568 250.645 58.448C250.261 61.296 250.005 63.6 249.877 65.36C249.813 66.288 249.429 67.008 248.725 67.52C248.021 68 247.173 68.24 246.181 68.24C245.125 68.24 244.309 67.984 243.733 67.472C243.157 66.96 242.869 66.288 242.869 65.456C242.869 64.688 242.981 63.424 243.205 61.664C243.461 59.872 243.749 58 244.069 56.048C244.421 54.096 244.693 52.4 244.885 50.96C245.237 48.528 245.637 46.112 246.085 43.712C246.533 41.312 246.981 39.04 247.429 36.896C247.525 36.416 247.637 35.872 247.765 35.264C247.893 34.624 248.037 33.92 248.197 33.152C245.061 33.248 242.597 33.504 240.805 33.92C239.013 34.336 237.733 34.928 236.965 35.696C236.229 36.432 235.861 37.392 235.861 38.576C235.861 39.664 236.181 40.704 236.821 41.696C236.949 41.92 237.013 42.16 237.013 42.416C237.013 43.024 236.645 43.6 235.909 44.144C235.205 44.656 234.469 44.912 233.701 44.912C233.157 44.912 232.709 44.752 232.357 44.432C231.717 43.888 231.189 43.12 230.773 42.128C230.357 41.104 230.149 39.952 230.149 38.672C230.149 35.952 231.029 33.776 232.789 32.144C234.581 30.48 237.285 29.264 240.901 28.496C244.549 27.728 249.221 27.344 254.917 27.344C258.437 27.344 261.237 27.408 263.317 27.536C265.429 27.664 267.269 27.872 268.837 28.16ZM269.076 42.464C267.732 42.464 266.724 42.16 266.052 41.552C265.38 40.912 265.044 40.032 265.044 38.912C265.044 37.792 265.476 36.864 266.34 36.128C267.236 35.36 268.34 34.976 269.652 34.976C270.836 34.976 271.796 35.264 272.532 35.84C273.268 36.416 273.636 37.232 273.636 38.288C273.636 39.568 273.22 40.592 272.388 41.36C271.556 42.096 270.452 42.464 269.076 42.464ZM268.692 68.24C266.612 68.24 265.092 67.504 264.132 66.032C263.204 64.56 262.74 62.608 262.74 60.176C262.74 58.736 262.916 56.896 263.268 54.656C263.652 52.384 264.132 50.272 264.708 48.32C264.996 47.296 265.38 46.592 265.86 46.208C266.34 45.824 267.108 45.632 268.164 45.632C269.796 45.632 270.612 46.176 270.612 47.264C270.612 48.064 270.308 49.92 269.7 52.832C268.932 56.352 268.548 58.736 268.548 59.984C268.548 60.944 268.676 61.68 268.932 62.192C269.188 62.704 269.62 62.96 270.228 62.96C270.804 62.96 271.524 62.56 272.388 61.76C273.252 60.96 274.404 59.696 275.844 57.968C276.228 57.52 276.66 57.296 277.14 57.296C277.556 57.296 277.876 57.488 278.1 57.872C278.356 58.256 278.484 58.784 278.484 59.456C278.484 60.736 278.18 61.728 277.572 62.432C274.404 66.304 271.444 68.24 268.692 68.24ZM278.009 68.24C276.793 68.24 275.929 67.6 275.417 66.32C274.937 65.04 274.697 62.992 274.697 60.176C274.697 56.016 275.289 52.064 276.473 48.32C276.761 47.392 277.225 46.72 277.865 46.304C278.537 45.856 279.465 45.632 280.649 45.632C281.289 45.632 281.737 45.712 281.993 45.872C282.249 46.032 282.377 46.336 282.377 46.784C282.377 47.296 282.137 48.448 281.657 50.24C281.337 51.52 281.081 52.64 280.889 53.6C280.697 54.528 280.537 55.696 280.409 57.104C281.273 54.608 282.297 52.496 283.481 50.768C284.697 49.04 285.929 47.76 287.177 46.928C288.457 46.064 289.657 45.632 290.777 45.632C291.897 45.632 292.681 45.888 293.129 46.4C293.609 46.912 293.849 47.696 293.849 48.752C293.849 49.776 293.545 51.632 292.937 54.32C292.681 55.472 292.505 56.336 292.409 56.912C294.009 52.976 295.785 50.112 297.737 48.32C299.689 46.528 301.513 45.632 303.209 45.632C305.289 45.632 306.329 46.672 306.329 48.752C306.329 50 305.977 52.256 305.273 55.52C304.665 58.304 304.361 60.144 304.361 61.04C304.361 62.32 304.825 62.96 305.753 62.96C306.393 62.96 307.145 62.576 308.009 61.808C308.905 61.008 310.089 59.728 311.561 57.968C311.945 57.52 312.377 57.296 312.857 57.296C313.273 57.296 313.593 57.488 313.817 57.872C314.073 58.256 314.201 58.784 314.201 59.456C314.201 60.736 313.897 61.728 313.289 62.432C311.913 64.128 310.425 65.52 308.825 66.608C307.257 67.696 305.465 68.24 303.449 68.24C301.817 68.24 300.585 67.776 299.753 66.848C298.921 65.888 298.505 64.512 298.505 62.72C298.505 61.824 298.729 60.224 299.177 57.92C299.593 55.904 299.801 54.512 299.801 53.744C299.801 53.232 299.625 52.976 299.273 52.976C298.857 52.976 298.265 53.52 297.497 54.608C296.729 55.664 295.961 57.072 295.193 58.832C294.425 60.592 293.801 62.448 293.321 64.4C292.969 65.936 292.553 66.96 292.073 67.472C291.625 67.984 290.889 68.24 289.865 68.24C288.809 68.24 288.009 67.744 287.465 66.752C286.953 65.728 286.697 64.496 286.697 63.056C286.697 61.84 286.857 60.08 287.177 57.776C287.433 55.728 287.561 54.384 287.561 53.744C287.561 53.232 287.385 52.976 287.033 52.976C286.553 52.976 285.945 53.552 285.209 54.704C284.473 55.856 283.753 57.328 283.049 59.12C282.377 60.912 281.833 62.672 281.417 64.4C281.065 65.904 280.649 66.928 280.169 67.472C279.721 67.984 279.001 68.24 278.009 68.24ZM327.504 58.736C327.92 58.736 328.24 58.928 328.464 59.312C328.72 59.696 328.848 60.224 328.848 60.896C328.848 62.048 328.576 63.04 328.032 63.872C327.136 65.248 325.952 66.32 324.48 67.088C323.04 67.856 321.312 68.24 319.296 68.24C316.224 68.24 313.84 67.328 312.144 65.504C310.448 63.648 309.6 61.152 309.6 58.016C309.6 55.808 310.064 53.76 310.992 51.872C311.92 49.952 313.2 48.432 314.832 47.312C316.496 46.192 318.368 45.632 320.448 45.632C322.304 45.632 323.792 46.192 324.912 47.312C326.032 48.4 326.592 49.888 326.592 51.776C326.592 53.984 325.792 55.888 324.192 57.488C322.624 59.056 319.936 60.304 316.128 61.232C316.896 62.704 318.192 63.44 320.016 63.44C321.328 63.44 322.4 63.136 323.232 62.528C324.096 61.92 325.088 60.896 326.208 59.456C326.592 58.976 327.024 58.736 327.504 58.736ZM319.632 50.336C318.448 50.336 317.44 51.024 316.608 52.4C315.808 53.776 315.408 55.44 315.408 57.392V57.488C317.296 57.04 318.784 56.368 319.872 55.472C320.96 54.576 321.504 53.536 321.504 52.352C321.504 51.744 321.328 51.264 320.976 50.912C320.656 50.528 320.208 50.336 319.632 50.336Z" fill="#6E4921"/>
</svg>
